<svg width="26" height="22" viewBox="0 0 26 22" fill="none" xmlns="http://www.w3.org/2000/svg">
<rect y="0.0791016" width="5.89088" height="1.11717" rx="0.558587" fill="#616161"/>
<rect width="5.89088" height="1.11717" rx="0.558587" transform="matrix(0 -1 -1 0 1.11725 5.98169)" fill="#616161"/>
<rect width="5.89088" height="1.11717" rx="0.558587" transform="matrix(1 0 0 -1 0 21.0686)" fill="#616161"/>
<rect x="1.11725" y="15.166" width="5.89088" height="1.11717" rx="0.558587" transform="rotate(90 1.11725 15.166)" fill="#616161"/>
<rect x="25.9998" y="21.0381" width="5.89088" height="1.11717" rx="0.558587" transform="rotate(-180 25.9998 21.0381)" fill="#616161"/>
<rect width="5.89088" height="1.11717" rx="0.558587" transform="matrix(0 1 1 0 24.8828 15.1355)" fill="#616161"/>
<rect width="5.89088" height="1.11717" rx="0.558587" transform="matrix(-1 0 0 1 25.9998 0.0908203)" fill="#616161"/>
<rect x="24.8828" y="5.99341" width="5.89088" height="1.11717" rx="0.558587" transform="rotate(-90 24.8828 5.99341)" fill="#616161"/>
<path fill-rule="evenodd" clip-rule="evenodd" d="M12.9594 15.8803C15.8387 15.8803 18.1728 13.5462 18.1728 10.6668C18.1728 7.78752 15.8387 5.45337 12.9594 5.45337C10.08 5.45337 7.74588 7.78752 7.74588 10.6668C7.74588 13.5462 10.08 15.8803 12.9594 15.8803ZM12.9841 15.0362C15.3835 15.0362 17.3286 13.0911 17.3286 10.6917C17.3286 8.2923 15.3835 6.34719 12.9841 6.34719C10.5847 6.34719 8.63955 8.2923 8.63955 10.6917C8.63955 13.0911 10.5847 15.0362 12.9841 15.0362Z" fill="#616161"/>
<rect x="4.6177" y="10.0708" width="6.25617" height="1.0427" rx="0.521348" fill="#616161"/>
<rect width="6.25617" height="1.0427" rx="0.521348" transform="matrix(0 -1 -1 0 13.4061 8.58179)" fill="#616161"/>
<rect width="6.25617" height="1.0427" rx="0.521348" transform="matrix(0 -1 -1 0 13.4061 19.0083)" fill="#616161"/>
<rect x="15.0446" y="10.0708" width="6.25617" height="1.0427" rx="0.521348" fill="#616161"/>
</svg>
