<svg width="678" height="624" viewBox="0 0 678 624" fill="none" xmlns="http://www.w3.org/2000/svg">
<g clip-path="url(#clip0)">
<path d="M480.44 572H171.25C163.907 571.992 156.867 569.07 151.676 563.877C146.485 558.684 143.566 551.643 143.56 544.3V425.45C142.92 426.18 142.25 426.9 141.56 427.6V544.3C141.567 552.173 144.697 559.722 150.263 565.29C155.829 570.858 163.377 573.99 171.25 574H481.31C481.01 573.34 480.72 572.67 480.44 572ZM143.56 132.7C143.566 125.357 146.485 118.316 151.676 113.123C156.867 107.93 163.907 105.008 171.25 105H274.27C274.08 104.33 273.9 103.67 273.73 103H171.25C163.377 103.01 155.829 106.142 150.263 111.71C144.697 117.278 141.567 124.827 141.56 132.7V314.9C142.25 315.6 142.91 316.32 143.56 317.05V132.7ZM558.72 156.06L494.12 104.89C492.578 103.667 490.668 103.001 488.7 103H431.21C431.05 103.67 430.87 104.34 430.68 105H488.7C490.216 105.004 491.687 105.514 492.88 106.45L557.48 157.63C558.093 158.114 558.589 158.73 558.928 159.434C559.268 160.137 559.443 160.909 559.44 161.69V459.52C560.11 459.54 560.78 459.59 561.44 459.64V161.69C561.444 160.607 561.201 159.537 560.729 158.561C560.258 157.586 559.571 156.73 558.72 156.06Z" fill="#3F3D56"/>
<path d="M557.867 158.702H505.741C503.857 158.702 501.991 158.331 500.25 157.61C498.509 156.889 496.928 155.832 495.595 154.499C494.263 153.167 493.206 151.585 492.485 149.845C491.764 148.104 491.393 146.238 491.393 144.354V105.855C491.393 105.686 491.44 105.521 491.53 105.378C491.62 105.235 491.748 105.121 491.899 105.047C492.051 104.974 492.22 104.945 492.388 104.963C492.555 104.982 492.714 105.047 492.846 105.152L558.423 157.102C558.569 157.218 558.676 157.376 558.728 157.555C558.78 157.733 558.775 157.924 558.713 158.1C558.652 158.276 558.538 158.428 558.386 158.536C558.234 158.644 558.053 158.702 557.867 158.702Z" fill="#E6E6E6"/>
<rect x="181" y="326" width="255.882" height="18.7647" rx="8" fill="#CCCCCC"/>
<rect x="181" y="363" width="110.882" height="18.7647" rx="8" fill="#CCCCCC"/>
<rect x="181" y="400" width="324.118" height="18.7647" rx="8" fill="#CCCCCC"/>
<rect x="298.706" y="363" width="32.4118" height="18.7647" rx="8" fill="#CCCCCC"/>
<rect x="337.941" y="363" width="32.4118" height="18.7647" rx="8" fill="#CCCCCC"/>
<rect x="181" y="178" width="66.5294" height="18.7647" rx="8" fill="#CCCCCC"/>
<rect x="181" y="215" width="104.059" height="18.7647" rx="8" fill="#CCCCCC"/>
<rect x="295.294" y="215" width="109.176" height="18.7647" rx="8" fill="#CCCCCC"/>
<rect x="419.823" y="252" width="85.2941" height="18.7647" rx="8" fill="#CCCCCC"/>
<rect x="181" y="289" width="85.2941" height="18.7647" rx="8" fill="#CCCCCC"/>
<rect x="278.235" y="289" width="114.294" height="18.7647" rx="8" fill="#CCCCCC"/>
<rect x="399.353" y="289" width="75.0588" height="18.7647" rx="8" fill="#CCCCCC"/>
<rect x="181" y="437" width="85.2941" height="18.7647" rx="8" fill="#CCCCCC"/>
<rect x="278.235" y="437" width="114.294" height="18.7647" rx="8" fill="#CCCCCC"/>
<rect x="399.353" y="437" width="75.0588" height="18.7647" rx="8" fill="#CCCCCC"/>
<rect x="257.765" y="178" width="131.353" height="18.7647" rx="8" fill="#CCCCCC"/>
<rect x="399.353" y="178" width="131.353" height="18.7647" rx="8" fill="#CCCCCC"/>
<rect x="181" y="252" width="228.588" height="18.7647" rx="8" fill="#CCCCCC"/>
<rect x="420" y="474" width="65" height="19" rx="8" fill="#CCCCCC"/>
<rect x="181" y="474" width="228.588" height="18.7647" rx="8" fill="#CCCCCC"/>
<path d="M557.866 159.702H505.741C501.672 159.697 497.771 158.078 494.893 155.201C492.016 152.324 490.397 148.423 490.393 144.353V105.854C490.393 105.498 490.493 105.149 490.683 104.847C490.872 104.545 491.143 104.302 491.464 104.147C491.785 103.992 492.143 103.93 492.497 103.969C492.852 104.008 493.188 104.146 493.467 104.367L559.044 156.318C559.353 156.563 559.578 156.897 559.688 157.276C559.798 157.654 559.787 158.057 559.658 158.429C559.528 158.801 559.286 159.123 558.965 159.351C558.644 159.579 558.26 159.702 557.866 159.702V159.702ZM492.393 106.068V144.353C492.397 147.892 493.804 151.285 496.307 153.788C498.809 156.29 502.202 157.698 505.741 157.702H557.57L492.393 106.068Z" fill="#3F3D56"/>
<path d="M593.697 614.324C592.266 615.072 590.81 615.78 589.33 616.447C587.983 617.057 586.614 617.629 585.223 618.164C584.715 618.358 584.199 618.552 583.682 618.746C579.595 620.228 575.397 621.385 571.128 622.207C569.014 622.622 566.873 622.949 564.704 623.186C562.913 623.389 561.104 623.533 559.277 623.619C557.975 623.684 556.673 623.712 555.363 623.712C550.172 623.714 544.993 623.229 539.893 622.263C538.563 622.023 537.262 621.736 535.96 621.423C529.665 619.914 523.57 617.664 517.804 614.721C517.287 614.463 516.77 614.186 516.253 613.918C515.487 613.512 514.74 613.088 513.992 612.645C514.352 612.146 514.74 611.657 515.137 611.177C519.456 605.824 524.854 601.442 530.981 598.315C537.107 595.189 543.823 593.388 550.692 593.031C557.56 592.674 564.427 593.769 570.844 596.243C577.262 598.718 583.086 602.517 587.937 607.392C589.62 609.082 591.181 610.89 592.607 612.801C592.985 613.3 593.346 613.807 593.697 614.324Z" fill="#F5CE49"/>
<path d="M557.205 573.778C579.589 573.778 597.735 555.632 597.735 533.248C597.735 510.863 579.589 492.717 557.205 492.717C534.82 492.717 516.674 510.863 516.674 533.248C516.674 555.632 534.82 573.778 557.205 573.778Z" fill="#2F2E41"/>
<path d="M567.985 573.835C582.603 565.844 587.976 547.515 579.985 532.897C571.993 518.278 553.665 512.906 539.046 520.897C524.428 528.888 519.055 547.217 527.046 561.835C535.038 576.454 553.366 581.826 567.985 573.835Z" fill="#A0616A"/>
<path d="M585.213 528.392C578.319 533.143 570.138 535.671 561.766 535.638C564.752 537.709 568.152 539.107 571.731 539.738C560.6 542.125 549.095 542.19 537.938 539.928C535.458 539.53 533.065 538.708 530.864 537.498C529.767 536.885 528.812 536.049 528.059 535.043C527.307 534.037 526.775 532.883 526.498 531.658C525.756 527.423 529.057 523.575 532.486 520.981C537.737 517.071 543.792 514.378 550.212 513.095C556.632 511.812 563.257 511.972 569.608 513.564C573.754 514.635 577.909 516.446 580.602 519.777C583.295 523.107 584.093 528.241 581.527 531.67L585.213 528.392Z" fill="#2F2E41"/>
<path d="M561.44 457.78C560.78 457.73 560.11 457.69 559.44 457.66C558.09 457.59 556.73 457.56 555.36 457.56C541.737 457.56 528.324 460.911 516.301 467.316C504.279 473.721 494.016 482.985 486.417 494.291C478.818 505.597 474.115 518.598 472.724 532.149C471.333 545.701 473.296 559.386 478.44 572C478.71 572.67 478.99 573.34 479.29 574C486.162 589.568 497.618 602.671 512.13 611.56L512.66 611.87C513.11 612.14 513.55 612.4 513.99 612.64C514.74 613.09 515.49 613.51 516.25 613.92C516.77 614.19 517.29 614.46 517.8 614.72C523.567 617.664 529.663 619.914 535.96 621.42C537.26 621.74 538.56 622.02 539.89 622.26C544.99 623.226 550.169 623.712 555.36 623.71C556.67 623.71 557.97 623.68 559.28 623.62C561.1 623.54 562.91 623.39 564.7 623.19C566.87 622.95 569.013 622.623 571.13 622.21C575.397 621.386 579.593 620.229 583.68 618.75C584.2 618.55 584.72 618.36 585.22 618.16C586.62 617.63 587.98 617.06 589.33 616.45C590.81 615.78 592.267 615.07 593.7 614.32C608.067 606.792 619.943 595.26 627.89 581.12C627.926 581.045 627.966 580.971 628.01 580.9C634.776 568.706 638.363 555.005 638.439 541.06C638.515 527.114 635.078 513.375 628.445 501.108C621.813 488.841 612.198 478.441 600.487 470.869C588.777 463.297 575.348 458.795 561.44 457.78L561.44 457.78ZM635.16 555.88C633.554 564.268 630.628 572.349 626.49 579.82C626.42 579.95 626.35 580.08 626.28 580.2C618.496 594.133 606.787 605.47 592.61 612.8C591.19 613.54 589.753 614.233 588.3 614.88C587.09 615.42 585.85 615.94 584.6 616.42C584.08 616.62 583.54 616.83 583.01 617.01C579.478 618.3 575.859 619.336 572.18 620.11C569.452 620.693 566.695 621.127 563.92 621.41C562.21 621.6 560.48 621.73 558.73 621.79C557.61 621.84 556.49 621.87 555.36 621.87C550.337 621.872 545.325 621.403 540.39 620.47C537.386 619.92 534.418 619.192 531.5 618.29C527.055 616.92 522.735 615.17 518.59 613.06C518.11 612.81 517.63 612.56 517.16 612.3C516.48 611.94 515.8 611.57 515.14 611.18C514.64 610.9 514.14 610.6 513.65 610.31C513.36 610.14 513.08 609.97 512.79 609.79C498.976 601.251 488.017 588.791 481.31 574C481.01 573.34 480.72 572.67 480.44 572C475.272 559.655 473.235 546.225 474.509 532.903C475.783 519.581 480.329 506.78 487.743 495.638C495.157 484.497 505.209 475.359 517.005 469.039C528.802 462.719 541.977 459.411 555.36 459.41C556.73 459.41 558.09 459.44 559.44 459.52C560.11 459.54 560.78 459.59 561.44 459.64C572.851 460.505 583.95 463.769 594.013 469.219C604.075 474.669 612.873 482.182 619.832 491.267C626.791 500.351 631.753 510.802 634.395 521.937C637.036 533.071 637.297 544.638 635.16 555.88L635.16 555.88Z" fill="#3F3D56"/>
<path d="M536.68 493.276C536.244 488.691 530.626 485.868 526.233 487.253C521.84 488.638 518.956 493.061 518.084 497.584C517.664 499.489 517.625 501.458 517.968 503.378C518.311 505.299 519.03 507.132 520.083 508.774C522.303 511.97 526.384 513.964 530.19 513.153C534.535 512.227 537.545 507.984 538.406 503.626C539.267 499.268 538.412 494.775 537.558 490.415L536.68 493.276Z" fill="#2F2E41"/>
<path d="M598.507 499.827C598.071 495.242 592.453 492.419 588.06 493.804C583.667 495.189 580.783 499.612 579.911 504.136C579.492 506.04 579.452 508.009 579.795 509.929C580.138 511.85 580.857 513.683 581.91 515.325C584.13 518.521 588.211 520.515 592.017 519.704C596.362 518.778 599.372 514.535 600.233 510.177C601.095 505.819 600.239 501.326 599.385 496.966L598.507 499.827Z" fill="#2F2E41"/>
<path d="M396.78 152.246C383.921 160.48 369.022 164.97 353.754 165.213C338.486 165.456 323.452 161.442 310.337 153.621C312.644 149.326 315.568 145.393 319.014 141.945C324.332 136.602 330.804 132.549 337.932 130.097C345.061 127.645 352.657 126.861 360.136 127.803C367.615 128.745 374.779 131.389 381.077 135.532C387.375 139.675 392.639 145.206 396.466 151.701C396.567 151.877 396.678 152.061 396.78 152.246Z" fill="#F5CE49"/>
<path d="M349.95 108.106C372.483 108.106 390.749 89.8391 390.749 67.3061C390.749 44.773 372.483 26.5063 349.95 26.5063C327.417 26.5063 309.15 44.773 309.15 67.3061C309.15 89.8391 327.417 108.106 349.95 108.106Z" fill="#2F2E41"/>
<path d="M376.308 96.0839C384.353 81.3683 378.944 62.9178 364.229 54.8735C349.513 46.8292 331.063 52.2374 323.019 66.953C314.974 81.6686 320.382 100.119 335.098 108.163C349.814 116.208 368.264 110.799 376.308 96.0839Z" fill="#FFB8B8"/>
<path d="M321.756 62.4181C328.695 67.2008 336.931 69.7461 345.359 69.7124C342.352 71.7969 338.93 73.2049 335.327 73.8394C346.532 76.243 358.113 76.3081 369.344 74.0306C371.841 73.6303 374.25 72.8029 376.466 71.5848C377.57 70.9682 378.532 70.1261 379.289 69.1133C380.046 68.1005 380.582 66.9397 380.861 65.7063C381.607 61.4427 378.285 57.5691 374.833 54.9585C369.546 51.0226 363.452 48.3108 356.989 47.0193C350.526 45.7279 343.857 45.8891 337.464 47.4913C333.29 48.5703 329.108 50.3933 326.397 53.7456C323.686 57.0979 322.883 62.266 325.466 65.7179L321.756 62.4181Z" fill="#2F2E41"/>
<path d="M352.45 0C330.425 0.0244888 309.309 8.78402 293.734 24.3571C278.159 39.9301 269.397 61.045 269.37 83.07C269.374 89.7888 270.2 96.482 271.83 103C272 103.67 272.17 104.34 272.35 105C277.142 122.569 287.58 138.075 302.056 149.125C316.531 160.176 334.239 166.158 352.45 166.15C370.665 166.15 388.375 160.165 402.856 149.116C417.338 138.068 427.788 122.568 432.6 105C432.78 104.33 432.95 103.67 433.11 103C436.123 90.7627 436.313 78.0006 433.668 65.6787C431.023 53.3568 425.61 41.7977 417.84 31.8754C410.07 21.9531 400.145 13.9274 388.817 8.40523C377.489 2.88301 365.053 0.00881655 352.45 0V0ZM431.21 103C431.05 103.67 430.87 104.34 430.68 105C427.306 117.016 421.21 128.094 412.864 137.374C404.518 146.654 394.147 153.887 382.555 158.513C370.963 163.138 358.461 165.032 346.019 164.046C333.577 163.061 321.529 159.223 310.81 152.83C292.995 142.109 279.929 125.007 274.27 105C274.08 104.33 273.9 103.67 273.73 103C272.064 96.4877 271.22 89.7921 271.22 83.07C271.233 71.5634 273.691 60.1909 278.43 49.7057C283.17 39.2205 290.083 29.8619 298.712 22.2498C307.341 14.6378 317.488 8.94594 328.483 5.55135C339.477 2.15675 351.067 1.13688 362.486 2.55927C373.904 3.98165 384.89 7.81384 394.716 13.802C404.541 19.7902 412.982 27.7976 419.48 37.294C425.978 46.7904 430.384 57.559 432.406 68.8865C434.428 80.214 434.02 91.8419 431.21 103H431.21Z" fill="#3F3D56"/>
<path d="M127.41 440.38C114.552 448.615 99.6537 453.106 84.3862 453.35C69.1188 453.593 54.0851 449.58 40.9702 441.76C41.1099 441.49 41.2598 441.22 41.4199 440.96C45.6267 433.377 51.7575 427.036 59.1948 422.576C66.632 418.117 75.1131 415.695 83.7839 415.556C92.4547 415.417 101.009 417.566 108.585 421.785C116.162 426.004 122.492 432.146 126.94 439.59C127 439.67 127.05 439.76 127.1 439.84C127.2 440.01 127.31 440.2 127.41 440.38Z" fill="#F5CE49"/>
<path d="M121.38 355.44C121.38 363.51 118.987 371.398 114.504 378.107C110.021 384.817 103.649 390.046 96.1934 393.134C88.7382 396.222 80.5347 397.03 72.6203 395.456C64.706 393.881 57.4362 389.996 51.7302 384.29C46.0243 378.584 42.1385 371.314 40.5642 363.4C38.99 355.485 39.798 347.282 42.886 339.826C45.9741 332.371 51.2035 325.999 57.913 321.516C64.6224 317.033 72.5107 314.64 80.5801 314.64C85.9452 314.614 91.2622 315.652 96.2238 317.694C101.185 319.735 105.693 322.739 109.487 326.533C113.281 330.327 116.285 334.835 118.326 339.796C120.368 344.758 121.406 350.075 121.38 355.44V355.44Z" fill="#2F2E41"/>
<path d="M112.55 380.79C112.083 381.965 111.545 383.11 110.94 384.22C107.077 391.286 100.565 396.529 92.8365 398.794C85.1083 401.059 76.7968 400.162 69.7299 396.3C66.2279 394.389 63.1369 391.806 60.6333 388.7C58.1298 385.594 56.2629 382.025 55.1393 378.197C54.0157 374.369 53.6575 370.357 54.0851 366.39C54.5126 362.424 55.7176 358.581 57.6312 355.08C59.5447 351.579 62.1293 348.49 65.2373 345.989C68.3453 343.487 71.9157 341.623 75.7445 340.502C79.5733 339.381 83.5855 339.026 87.5517 339.456C91.5179 339.886 95.3605 341.094 98.8598 343.01C105.351 346.56 110.324 352.357 112.845 359.313C115.365 366.269 115.261 373.906 112.55 380.79V380.79Z" fill="#A0616A"/>
<path d="M143.56 314.34C142.92 313.64 142.25 312.95 141.56 312.28C130.448 301.268 116.452 293.619 101.182 290.215C85.9133 286.811 69.9931 287.79 55.2561 293.04C40.5191 298.289 27.5651 307.595 17.8865 319.886C8.20783 332.176 2.19849 346.951 0.550826 362.508C-1.09684 378.065 1.68419 393.771 8.57353 407.817C15.4629 421.862 26.1802 433.675 39.4906 441.895C52.801 450.115 68.1629 454.407 83.8064 454.277C99.4498 454.147 114.738 449.6 127.91 441.16C132.829 438.003 137.404 434.34 141.56 430.23C142.24 429.56 142.91 428.88 143.56 428.18C158.07 412.779 166.15 392.419 166.15 371.26C166.15 350.101 158.07 329.741 143.56 314.34V314.34ZM141.56 427.6C137.168 432.15 132.262 436.174 126.94 439.59C126.93 439.6 126.92 439.6 126.91 439.61C114.195 447.75 99.4641 452.19 84.3682 452.43C69.2723 452.67 54.4077 448.702 41.44 440.97C41.4302 440.97 41.4302 440.96 41.42 440.96C31.4742 435.029 22.9117 427.04 16.3066 417.529C9.70155 408.017 5.20665 397.204 3.1234 385.813C1.04015 374.422 1.41671 362.717 4.22783 351.484C7.03895 340.25 12.2196 329.748 19.4224 320.681C26.6252 311.613 35.6836 304.191 45.9899 298.912C56.2963 293.633 67.6124 290.618 79.1793 290.071C90.7462 289.523 102.296 291.456 113.055 295.738C123.814 300.02 133.533 306.554 141.56 314.9C142.25 315.6 142.91 316.32 143.56 317.05C156.914 331.945 164.3 351.245 164.3 371.25C164.3 391.255 156.914 410.555 143.56 425.45C142.92 426.18 142.25 426.9 141.56 427.6Z" fill="#3F3D56"/>
<path d="M113.647 321.558C111.638 318.146 108.724 315.356 105.228 313.496C101.733 311.636 97.7908 310.779 93.8384 311.018C89.6898 311.329 85.7427 312.857 81.8669 314.369L62.1623 322.056C57.0635 324.045 51.4792 326.481 49.2667 331.487C47.2132 336.133 48.7452 341.498 50.2962 346.336L57.6684 369.329C58.6786 364.164 59.7047 358.947 61.8461 354.14C63.9876 349.333 67.3745 344.9 72.0571 342.497C77.1754 339.872 83.2081 339.926 88.9539 340.203C97.0915 340.594 105.939 341.63 111.721 347.369C114.79 350.629 116.871 354.693 117.722 359.089C118.559 363.461 118.98 367.902 118.98 372.354C122.317 366.618 125.128 360.592 127.379 354.349C129.23 349.7 130.285 344.773 130.499 339.774C130.543 334.782 129.13 329.632 125.801 325.911C122.472 322.19 117.048 320.182 112.277 321.655" fill="#2F2E41"/>
<path d="M51.5126 211.843L49.5128 211.819C49.5366 209.819 49.5942 207.79 49.6841 205.787L51.6821 205.877C51.5932 207.857 51.5363 209.865 51.5126 211.843Z" fill="#015999"/>
<path d="M52.5605 194.457L50.5723 194.24C50.9899 190.417 51.5367 186.562 52.1978 182.781L54.168 183.125C53.5142 186.864 52.9734 190.676 52.5605 194.457ZM56.5027 171.921L54.5588 171.45C55.464 167.715 56.5034 163.962 57.6483 160.295L59.5575 160.891C58.4254 164.517 57.3976 168.229 56.5027 171.921ZM63.3252 150.069L61.4587 149.351C62.84 145.763 64.3575 142.172 65.9691 138.679L67.7851 139.517C66.1915 142.971 64.691 146.522 63.3252 150.069V150.069ZM72.9172 129.276L71.1592 128.323C72.9902 124.946 74.957 121.583 77.0049 118.325L78.698 119.39C76.6728 122.611 74.728 125.937 72.9172 129.276L72.9172 129.276ZM85.1012 109.896L83.4799 108.725C85.73 105.609 88.1109 102.526 90.556 99.5605L92.099 100.833C89.6809 103.766 87.3265 106.814 85.1012 109.896V109.896ZM99.6614 92.2373L98.2029 90.8691C100.83 88.0684 103.585 85.3149 106.389 82.6846L107.757 84.1436C104.984 86.7447 102.26 89.4678 99.6614 92.2373V92.2373ZM116.351 76.584L115.079 75.041C118.044 72.5966 121.126 70.2172 124.24 67.9692L125.41 69.5903C122.331 71.814 119.283 74.167 116.351 76.584V76.584ZM134.897 63.1929L133.833 61.4995C137.086 59.4546 140.446 57.4902 143.82 55.6607L144.773 57.4185C141.437 59.2281 138.114 61.1704 134.897 63.1929V63.1929ZM154.998 52.2939L154.161 50.4775C157.646 48.8696 161.229 47.3545 164.811 45.9741L165.53 47.8403C161.988 49.2051 158.445 50.7036 154.998 52.294V52.2939ZM176.325 44.0781L175.728 42.1689C179.394 41.0229 183.146 39.9819 186.882 39.0752L187.354 41.0185C183.66 41.9155 179.95 42.9448 176.325 44.0781V44.0781ZM198.557 38.6792L198.212 36.7095C201.992 36.0469 205.847 35.4985 209.67 35.0796L209.888 37.0679C206.107 37.482 202.295 38.0244 198.557 38.6792V38.6792Z" fill="#015999"/>
<path d="M221.376 36.1821L221.287 34.1841C223.29 34.0943 225.319 34.0366 227.319 34.0127L227.343 36.0127C225.365 36.0361 223.358 36.0933 221.376 36.1821Z" fill="#015999"/>
<path d="M58.899 205.414L57.47 204.013L50.576 211.064L44.046 203.673L42.547 205L50.502 214L58.899 205.414Z" fill="#015999"/>
<path d="M220.914 43.3991L219.513 41.9701L226.564 35.0761L219.173 28.5461L220.5 27.0471L229.5 35.0021L220.914 43.3991Z" fill="#015999"/>
<path d="M520.125 55.9569C518.365 55.0306 516.591 54.1201 514.805 53.2257L515.7 51.4375C517.499 52.3374 519.285 53.2539 521.057 54.1868L520.125 55.9569Z" fill="#015999"/>
<path d="M656.03 425.084L654.179 424.325C655.684 420.654 657.131 416.908 658.48 413.193L660.36 413.875C659.002 417.616 657.545 421.387 656.03 425.084ZM664.229 402.498L662.323 401.893C663.522 398.116 664.658 394.265 665.7 390.445L667.63 390.972C666.581 394.818 665.436 398.696 664.229 402.498V402.498ZM670.554 379.315L668.604 378.868C669.489 375.003 670.305 371.071 671.028 367.181L672.995 367.547C672.266 371.464 671.445 375.423 670.554 379.315V379.315ZM674.949 355.687L672.969 355.403C673.532 351.481 674.021 347.495 674.422 343.555L676.412 343.757C676.008 347.725 675.516 351.739 674.949 355.687V355.687ZM677.382 331.776L675.385 331.656C675.623 327.703 675.782 323.69 675.858 319.728L677.857 319.766C677.781 323.755 677.621 327.796 677.382 331.776V331.776ZM677.839 307.746L675.84 307.79C675.801 306.05 675.747 304.312 675.678 302.576C675.588 300.349 675.472 298.09 675.331 295.861L677.327 295.735C677.469 297.979 677.586 300.253 677.676 302.496C677.746 304.244 677.8 305.994 677.839 307.746L677.839 307.746ZM674.335 283.97C673.923 280.03 673.425 276.045 672.853 272.128L674.832 271.839C675.408 275.783 675.91 279.795 676.324 283.762L674.335 283.97ZM670.889 260.354C670.158 256.464 669.336 252.533 668.446 248.67L670.395 248.221C671.291 252.11 672.118 256.068 672.855 259.985L670.889 260.354ZM665.529 237.094C664.482 233.27 663.343 229.419 662.143 225.645L664.049 225.039C665.257 228.838 666.404 232.716 667.458 236.566L665.529 237.094ZM658.294 214.343C656.941 210.619 655.492 206.871 653.988 203.206L655.839 202.446C657.353 206.138 658.811 209.911 660.174 213.66L658.294 214.343ZM649.232 192.251C647.58 188.648 645.83 185.031 644.033 181.499L645.816 180.592C647.625 184.148 649.386 187.789 651.05 191.417L649.232 192.251ZM638.4 170.967C636.46 167.512 634.421 164.048 632.34 160.674L634.043 159.624C636.138 163.022 638.19 166.509 640.144 169.988L638.4 170.967ZM625.864 150.636C623.646 147.349 621.331 144.063 618.981 140.872L620.592 139.686C622.957 142.9 625.289 146.208 627.522 149.518L625.864 150.636ZM611.702 131.396C609.22 128.3 606.642 125.216 604.038 122.229L605.546 120.915C608.167 123.922 610.764 127.028 613.263 130.146L611.702 131.396ZM596.002 113.384C593.273 110.501 590.448 107.639 587.606 104.876L589.001 103.442C591.862 106.224 594.706 109.106 597.454 112.008L596.002 113.384ZM578.866 96.7215C575.908 94.075 572.856 91.4548 569.793 88.9337L571.065 87.3894C574.148 89.9282 577.222 92.5666 580.199 95.2314L578.866 96.7215ZM560.406 81.526C557.252 79.1405 553.999 76.7839 550.738 74.5219L551.878 72.8783C555.161 75.156 558.437 77.5288 561.612 79.9305L560.406 81.526ZM540.79 67.921C537.453 65.8023 534.018 63.7198 530.582 61.7302L531.584 59.9993C535.044 62.0021 538.502 64.0993 541.862 66.2322L540.79 67.921Z" fill="#015999"/>
<path d="M648.679 441.572L646.877 440.703C647.746 438.904 648.594 437.1 649.422 435.292L651.241 436.124C650.407 437.945 649.553 439.761 648.679 441.572Z" fill="#015999"/>
<path d="M517.31 62.6929L519.197 62.0279L515.91 52.7309L525.424 50.1309L524.894 48.2009L513.308 51.3689L517.31 62.6929Z" fill="#015999"/>
<path d="M643.078 431.677L644.979 431.051L648.055 440.42L657.176 436.668L657.935 438.52L646.826 443.088L643.078 431.677Z" fill="#015999"/>
</g>
<defs>
<clipPath id="clip0">
<rect width="677.858" height="623.712" fill="white"/>
</clipPath>
</defs>
</svg>
