<svg width="579" height="622" viewBox="0 0 579 622" fill="none" xmlns="http://www.w3.org/2000/svg">
<g clip-path="url(#clip0)">
<path d="M295.735 278.728L181.982 308.021C181.283 308.201 180.556 308.241 179.841 308.14C179.127 308.039 178.439 307.798 177.818 307.431C177.196 307.064 176.653 306.578 176.22 306.002C175.786 305.425 175.47 304.768 175.29 304.069C175.11 303.37 175.07 302.643 175.171 301.928C175.272 301.214 175.513 300.526 175.88 299.905C176.247 299.283 176.732 298.74 177.309 298.307C177.886 297.873 178.543 297.557 179.241 297.377L292.994 268.084C293.693 267.905 294.42 267.864 295.135 267.965C295.85 268.066 296.537 268.307 297.159 268.674C297.78 269.041 298.323 269.527 298.757 270.104C299.191 270.68 299.506 271.337 299.686 272.036C299.866 272.735 299.907 273.462 299.806 274.177C299.704 274.891 299.464 275.579 299.097 276.2C298.73 276.822 298.244 277.365 297.667 277.798C297.09 278.232 296.434 278.548 295.735 278.728Z" fill="#CCCCCC"/>
<path d="M322.313 291.036L186.607 325.982C185.196 326.345 183.698 326.133 182.443 325.392C181.188 324.651 180.279 323.442 179.915 322.03C179.552 320.619 179.764 319.121 180.505 317.866C181.246 316.611 182.455 315.702 183.867 315.338L319.572 280.393C320.983 280.031 322.48 280.244 323.733 280.985C324.987 281.726 325.896 282.935 326.259 284.345C326.622 285.756 326.411 287.253 325.671 288.508C324.931 289.762 323.723 290.672 322.313 291.036Z" fill="#CCCCCC"/>
<path d="M462.475 464.677H204.475C195.726 464.668 187.338 461.188 181.152 455.001C174.965 448.815 171.485 440.427 171.475 431.677V128.677C171.485 119.928 174.965 111.54 181.152 105.354C187.338 99.1673 195.726 95.6874 204.475 95.6775H444.502L495.475 136.306V431.677C495.465 440.427 491.985 448.815 485.799 455.001C479.612 461.188 471.224 464.668 462.475 464.677Z" fill="#E6E6E6"/>
<path d="M204.475 105.177C198.245 105.185 192.271 107.663 187.866 112.068C183.46 116.474 180.982 122.447 180.975 128.677V431.677C180.982 437.908 183.46 443.881 187.866 448.287C192.271 452.692 198.245 455.17 204.475 455.177H462.475C468.706 455.17 474.679 452.692 479.084 448.287C483.49 443.881 485.968 437.908 485.975 431.677V140.883L441.179 105.177H204.475Z" fill="white"/>
<path d="M494.483 137.614H454.554C451.639 137.614 448.844 136.456 446.782 134.395C444.721 132.334 443.563 129.538 443.563 126.623V97.1322C443.563 97.0031 443.6 96.8766 443.668 96.7672C443.737 96.6579 443.835 96.57 443.951 96.5138C444.067 96.4576 444.197 96.4353 444.325 96.4494C444.454 96.4636 444.575 96.5136 444.677 96.5938L494.91 136.389C495.021 136.477 495.103 136.598 495.143 136.735C495.182 136.872 495.179 137.018 495.132 137.153C495.085 137.288 494.997 137.404 494.881 137.487C494.765 137.57 494.626 137.614 494.483 137.614Z" fill="#CCCCCC"/>
<path d="M484.603 291.734C498.168 291.734 509.164 280.737 509.164 267.173C509.164 253.608 498.168 242.612 484.603 242.612C471.038 242.612 460.042 253.608 460.042 267.173C460.042 280.737 471.038 291.734 484.603 291.734Z" fill="#A0616A"/>
<path d="M483.016 404.864C482.542 403.388 482.386 401.829 482.557 400.288C482.728 398.748 483.222 397.261 484.008 395.925C484.794 394.588 485.853 393.434 487.116 392.535C488.379 391.637 489.818 391.016 491.338 390.713C491.82 390.619 492.307 390.559 492.797 390.533L518.669 349.01L495.037 326.543C494.134 325.684 493.41 324.656 492.906 323.516C492.403 322.376 492.131 321.148 492.105 319.902C492.079 318.657 492.3 317.418 492.756 316.259C493.211 315.099 493.892 314.041 494.758 313.146C495.625 312.251 496.66 311.536 497.805 311.043C498.949 310.551 500.18 310.29 501.425 310.275C502.671 310.261 503.907 310.493 505.063 310.959C506.218 311.425 507.27 312.115 508.157 312.99L540.787 345.164L540.852 345.244C541.862 346.78 542.349 348.6 542.242 350.435C542.135 352.269 541.439 354.021 540.258 355.428L504.008 398.301C504.116 398.645 504.206 398.994 504.278 399.347C504.581 400.868 504.559 402.435 504.215 403.946C503.87 405.457 503.21 406.879 502.278 408.117C501.345 409.355 500.162 410.383 498.805 411.132C497.448 411.881 495.948 412.335 494.403 412.464C494.091 412.491 493.78 412.505 493.471 412.505C491.145 412.495 488.882 411.751 487.005 410.379C485.127 409.007 483.731 407.077 483.016 404.864Z" fill="#A0616A"/>
<path d="M444.151 609.001L431.891 609L426.059 561.712L444.153 561.713L444.151 609.001Z" fill="#A0616A"/>
<path d="M447.277 620.885L407.747 620.883V620.383C407.747 618.363 408.145 616.362 408.918 614.495C409.691 612.628 410.825 610.932 412.253 609.503C413.682 608.075 415.378 606.941 417.245 606.168C419.112 605.395 421.113 604.997 423.133 604.997H423.134L447.278 604.998L447.277 620.885Z" fill="#2F2E41"/>
<path d="M566.007 592.05L555.473 598.322L526.268 560.676L541.815 551.419L566.007 592.05Z" fill="#A0616A"/>
<path d="M574.773 600.662L540.807 620.885L540.551 620.455C539.518 618.719 538.836 616.797 538.545 614.797C538.254 612.797 538.36 610.76 538.857 608.802C539.354 606.843 540.231 605.001 541.44 603.382C542.648 601.763 544.164 600.397 545.9 599.363L545.901 599.363L566.646 587.011L574.773 600.662Z" fill="#2F2E41"/>
<rect x="228" y="325" width="150" height="11" rx="5" fill="#CCCCCC"/>
<rect x="228" y="343" width="65" height="11" rx="5" fill="#CCCCCC"/>
<rect x="228" y="361" width="190" height="11" rx="5" fill="#CCCCCC"/>
<rect x="297" y="343" width="19" height="11" rx="5" fill="#CCCCCC"/>
<rect x="320" y="343" width="19" height="11" rx="5" fill="#CCCCCC"/>
<path d="M424.513 588.176C416.3 491.469 411.414 401.631 441.437 364.982L441.669 364.698L492.195 384.909L492.278 385.09C492.448 385.461 509.252 422.423 505.332 447.284L517.795 504.612L558.43 572.653C558.758 573.201 558.964 573.812 559.038 574.446C559.111 575.079 559.048 575.721 558.854 576.329C558.66 576.937 558.339 577.497 557.913 577.971C557.486 578.445 556.964 578.824 556.38 579.081L538.721 586.85C537.724 587.284 536.605 587.344 535.567 587.02C534.53 586.696 533.644 586.009 533.072 585.085L488.868 513.005L463.9 457.719C463.764 457.418 463.534 457.171 463.244 457.015C462.954 456.859 462.62 456.803 462.295 456.855C461.97 456.907 461.671 457.065 461.445 457.304C461.218 457.543 461.076 457.85 461.041 458.178L447.201 588.274C447.086 589.38 446.564 590.403 445.737 591.147C444.911 591.89 443.838 592.3 442.727 592.299H428.998C427.872 592.292 426.788 591.866 425.959 591.104C425.13 590.341 424.614 589.297 424.513 588.176Z" fill="#2F2E41"/>
<path d="M400.817 351.733C399.988 353.091 398.654 354.065 397.107 354.44C395.56 354.814 393.928 354.559 392.57 353.731L322.565 311.031C321.892 310.62 321.307 310.081 320.843 309.445C320.378 308.808 320.044 308.087 319.858 307.321C319.673 306.555 319.64 305.76 319.761 304.982C319.883 304.203 320.157 303.456 320.567 302.784C320.977 302.111 321.516 301.526 322.153 301.061C322.789 300.597 323.511 300.262 324.277 300.077C325.042 299.891 325.837 299.858 326.616 299.98C327.394 300.102 328.141 300.376 328.814 300.786L398.819 343.486C400.177 344.315 401.151 345.649 401.526 347.196C401.9 348.742 401.645 350.374 400.817 351.733Z" fill="#3F3D56"/>
<path d="M441.607 365.749L441.366 365.633L441.329 365.369C439.441 352.159 441.675 337.481 447.968 321.744C451.07 314.042 456.836 307.71 464.215 303.903C471.594 300.095 480.096 299.065 488.17 301.001C492.822 302.147 497.184 304.246 500.982 307.167C504.779 310.087 507.929 313.764 510.231 317.965C512.504 322.122 513.888 326.707 514.296 331.428C514.705 336.149 514.128 340.903 512.604 345.389C504.67 368.59 494.378 390.297 494.275 390.513L494.059 390.966L441.607 365.749Z" fill="#355CBC"/>
<path d="M386.481 332.845C387.697 331.885 389.103 331.192 390.606 330.813C392.109 330.433 393.675 330.376 395.202 330.644C396.728 330.912 398.181 331.5 399.465 332.369C400.749 333.237 401.834 334.367 402.651 335.685C402.907 336.103 403.134 336.539 403.33 336.989L451.284 346.681L464.052 316.678C464.54 315.531 465.25 314.493 466.142 313.622C467.033 312.752 468.088 312.067 469.246 311.606C470.403 311.146 471.641 310.919 472.886 310.94C474.132 310.96 475.361 311.227 476.503 311.726C477.645 312.224 478.677 312.943 479.539 313.843C480.402 314.742 481.077 315.803 481.527 316.965C481.977 318.127 482.192 319.366 482.16 320.612C482.129 321.857 481.85 323.084 481.342 324.221L462.632 366.052L462.58 366.141C461.494 367.624 459.96 368.718 458.204 369.26C456.448 369.803 454.564 369.764 452.832 369.151L399.979 350.21C399.695 350.432 399.4 350.638 399.094 350.829C397.776 351.646 396.301 352.174 394.765 352.381C393.228 352.587 391.666 352.466 390.179 352.027C388.693 351.587 387.316 350.838 386.139 349.829C384.962 348.821 384.012 347.574 383.35 346.173C383.215 345.89 383.094 345.604 382.985 345.314C382.18 343.132 382.084 340.752 382.712 338.513C383.34 336.274 384.659 334.29 386.481 332.845Z" fill="#A0616A"/>
<path d="M573.332 293.475C570.966 289.283 567.519 285.444 562.962 283.895C557.078 281.894 550.706 284.024 544.655 285.447C539.994 286.543 535.124 287.213 530.425 286.289C525.727 285.364 521.194 282.629 519.057 278.345C515.912 272.041 518.561 264.524 518.37 257.482C518.271 253.649 517.304 249.888 515.541 246.482C513.778 243.077 511.264 240.117 508.19 237.824C505.117 235.531 501.563 233.966 497.796 233.247C494.029 232.528 490.149 232.673 486.446 233.671C480.653 231.999 475.407 231.845 471.824 236.299C467.315 236.299 462.991 238.09 459.803 241.278C456.615 244.466 454.824 248.79 454.824 253.299H471.079C470.308 257.443 471.189 261.725 473.533 265.23C476.403 269.445 481.393 272.495 482.353 277.504C483.284 282.357 479.985 286.962 476.524 290.49C473.063 294.018 469.049 297.514 467.968 302.337C467.306 305.997 468.058 309.773 470.072 312.901C472.082 315.991 474.576 318.738 477.458 321.037C490.443 332.162 505.876 340.057 522.496 344.077C534.2 346.895 547.001 347.626 557.867 342.442C562.213 340.368 566.087 337.423 569.247 333.789C572.407 330.155 574.786 325.91 576.236 321.318C577.687 316.726 578.177 311.885 577.677 307.095C577.178 302.305 575.699 297.669 573.332 293.475Z" fill="#2F2E41"/>
<path d="M577.001 621.926H387.001C386.736 621.926 386.482 621.82 386.294 621.633C386.107 621.445 386.001 621.191 386.001 620.926C386.001 620.66 386.107 620.406 386.294 620.218C386.482 620.031 386.736 619.926 387.001 619.926H577.001C577.267 619.926 577.521 620.031 577.708 620.218C577.896 620.406 578.001 620.66 578.001 620.926C578.001 621.191 577.896 621.445 577.708 621.633C577.521 621.82 577.267 621.926 577.001 621.926Z" fill="#CCCCCC"/>
<rect x="228" y="182" width="39" height="11" rx="5" fill="#F5CE49"/>
<rect x="228" y="200" width="61" height="11" rx="5" fill="#F5CE49"/>
<rect x="293" y="200" width="17" height="11" rx="5" fill="#F5CE49"/>
<rect x="316" y="200" width="64" height="11" rx="5" fill="#F5CE49"/>
<rect x="228" y="271" width="134" height="11" rx="5" fill="#CCCCCC"/>
<rect x="228" y="289" width="27" height="11" rx="5" fill="#CCCCCC"/>
<rect x="228" y="307" width="27" height="11" rx="5" fill="#CCCCCC"/>
<rect x="293" y="289" width="17" height="11" rx="5" fill="#355CBC"/>
<rect x="293" y="289" width="17" height="11" rx="5" fill="#355CBC"/>
<rect x="293" y="289" width="17" height="11" rx="5" fill="#355CBC"/>
<rect x="248" y="289" width="41" height="11" rx="5" fill="#355CBC"/>
<rect x="248" y="289" width="41" height="11" rx="5" fill="#355CBC"/>
<rect x="248" y="289" width="41" height="11" rx="5" fill="#355CBC"/>
<rect x="316" y="289" width="64" height="11" rx="5" fill="#CCCCCC"/>
<rect x="368" y="218" width="50" height="11" rx="5" fill="#CCCCCC"/>
<rect x="228" y="236" width="50" height="11" rx="5" fill="#CCCCCC"/>
<rect x="228" y="253" width="30" height="11" rx="5" fill="#CCCCCC"/>
<rect x="316" y="289" width="17" height="11" rx="5" fill="#355CBC"/>
<rect x="308" y="253" width="18" height="11" rx="5" fill="#355CBC"/>
<rect x="256" y="253" width="46" height="11" rx="5" fill="#355CBC"/>
<rect x="285" y="236" width="67" height="11" rx="5" fill="#CCCCCC"/>
<rect x="248" y="271" width="82" height="11" rx="5" fill="#355CBC"/>
<rect x="248" y="271" width="82" height="11" rx="5" fill="#355CBC"/>
<rect x="248" y="271" width="82" height="11" rx="5" fill="#355CBC"/>
<rect x="356" y="236" width="44" height="11" rx="5" fill="#CCCCCC"/>
<rect x="273" y="182" width="77" height="11" rx="5" fill="#F5CE49"/>
<rect x="356" y="182" width="77" height="11" rx="5" fill="#F5CE49"/>
<rect x="228" y="218" width="134" height="11" rx="5" fill="#CCCCCC"/>
<rect x="368" y="271" width="50" height="11" rx="5" fill="#CCCCCC"/>
<path d="M330.812 309.033C325.868 317.137 318.632 323.594 310.019 327.587C301.406 331.579 291.802 332.928 282.422 331.462C273.043 329.996 264.308 325.782 257.324 319.352C250.339 312.922 245.418 304.566 243.183 295.339C240.947 286.113 241.498 276.43 244.766 267.517C248.033 258.603 253.871 250.859 261.539 245.263C269.208 239.667 278.364 236.471 287.85 236.078C297.335 235.686 306.724 238.115 314.829 243.059C325.685 249.698 333.466 260.373 336.462 272.741C339.458 285.109 337.426 298.161 330.812 309.033ZM259.099 265.291C255.392 271.369 253.57 278.411 253.864 285.525C254.158 292.639 256.555 299.506 260.752 305.258C264.949 311.009 270.758 315.387 277.443 317.838C284.128 320.289 291.39 320.702 298.31 319.025C305.23 317.349 311.497 313.658 316.319 308.42C321.142 303.181 324.302 296.63 325.402 289.596C326.501 282.561 325.489 275.358 322.495 268.898C319.501 262.438 314.658 257.011 308.58 253.304C300.426 248.343 290.637 246.819 281.361 249.066C272.085 251.313 264.079 257.148 259.099 265.291Z" fill="#3F3D56"/>
</g>
<defs>
<clipPath id="clip0">
<rect width="578.001" height="621.926" fill="white"/>
</clipPath>
</defs>
</svg>
