<svg width="612" height="524" viewBox="0 0 612 524" fill="none" xmlns="http://www.w3.org/2000/svg">
<path d="M532.59 17.4319H0.325195V330.909H532.59V17.4319Z" fill="#E6E6E6"/>
<path d="M532.264 0H0V32.3992H532.264V0Z" fill="#F5CE49"/>
<path d="M519.786 59.3508H12.2742V315.312H519.786V59.3508Z" fill="#F7F7F7"/>
<path d="M50.4381 21.4763C53.398 21.4763 55.7976 19.0767 55.7976 16.1168C55.7976 13.1568 53.398 10.7573 50.4381 10.7573C47.4781 10.7573 45.0786 13.1568 45.0786 16.1168C45.0786 19.0767 47.4781 21.4763 50.4381 21.4763Z" fill="white"/>
<path d="M70.7818 21.4763C73.7418 21.4763 76.1413 19.0767 76.1413 16.1168C76.1413 13.1568 73.7418 10.7573 70.7818 10.7573C67.8219 10.7573 65.4224 13.1568 65.4224 16.1168C65.4224 19.0767 67.8219 21.4763 70.7818 21.4763Z" fill="white"/>
<path d="M30.0416 21.4763C33.0016 21.4763 35.4011 19.0767 35.4011 16.1168C35.4011 13.1568 33.0016 10.7573 30.0416 10.7573C27.0816 10.7573 24.6821 13.1568 24.6821 16.1168C24.6821 19.0767 27.0816 21.4763 30.0416 21.4763Z" fill="white"/>
<path d="M514.231 512.587L501.972 512.586L496.139 465.298L514.234 465.299L514.231 512.587Z" fill="#9F616A"/>
<path d="M493.215 509.083H516.858V523.97H478.328C478.328 520.022 479.896 516.236 482.688 513.444C485.48 510.652 489.266 509.083 493.215 509.083Z" fill="#2F2E41"/>
<path d="M560.231 512.587L547.972 512.586L542.139 465.298L560.234 465.299L560.231 512.587Z" fill="#9F616A"/>
<path d="M539.214 509.083H562.858V523.97H524.328C524.328 522.015 524.713 520.08 525.461 518.273C526.209 516.467 527.305 514.826 528.688 513.444C530.07 512.061 531.711 510.965 533.518 510.217C535.324 509.469 537.26 509.083 539.214 509.083Z" fill="#2F2E41"/>
<path d="M558.734 371.748C557.413 370.899 556.295 369.77 555.457 368.441C554.62 367.113 554.084 365.617 553.888 364.058C553.691 362.5 553.838 360.918 554.319 359.423C554.801 357.928 555.603 356.557 556.672 355.405L548.599 240.848L571.852 243.103L572.491 355.289C574.306 357.212 575.352 359.734 575.432 362.377C575.512 365.02 574.619 367.601 572.923 369.629C571.227 371.658 568.846 372.995 566.231 373.385C563.616 373.776 560.949 373.193 558.734 371.749L558.734 371.748Z" fill="#9F616A"/>
<path d="M513.652 488.764L500.156 488.12C499.006 488.066 497.921 487.573 497.124 486.743C496.327 485.913 495.878 484.809 495.87 483.658L494.928 347.101C494.924 346.453 495.059 345.811 495.326 345.22C495.592 344.629 495.983 344.103 496.472 343.677C496.96 343.251 497.535 342.936 498.157 342.753C498.779 342.569 499.433 342.523 500.075 342.616L554.068 350.454C555.135 350.603 556.112 351.132 556.82 351.944C557.528 352.756 557.919 353.796 557.922 354.873L564.866 481.408C564.871 482.001 564.757 482.59 564.533 483.14C564.309 483.69 563.978 484.19 563.56 484.612C563.142 485.033 562.644 485.368 562.096 485.596C561.548 485.824 560.96 485.942 560.366 485.942H545.816C544.743 485.946 543.703 485.565 542.887 484.867C542.071 484.17 541.533 483.202 541.371 482.141C541.371 482.141 530.381 387.229 528.872 387.285C527.354 387.313 518.335 484.804 518.335 484.804C518.2 485.896 517.672 486.901 516.85 487.631C516.027 488.362 514.966 488.766 513.866 488.77C513.795 488.77 513.724 488.768 513.652 488.764Z" fill="#2F2E41"/>
<path d="M553.863 279.34C553.319 278.949 552.869 278.44 552.547 277.851C552.225 277.263 552.04 276.61 552.004 275.94L550.301 245.064C550.132 242.005 551.102 238.992 553.023 236.605C554.945 234.219 557.682 232.629 560.706 232.141C563.731 231.653 566.829 232.302 569.403 233.963C571.977 235.625 573.845 238.18 574.647 241.137L582.132 268.742C582.442 269.894 582.284 271.122 581.69 272.157C581.097 273.192 580.117 273.949 578.966 274.263L557.675 280.035C557.028 280.212 556.35 280.241 555.69 280.121C555.03 280.001 554.406 279.734 553.863 279.34Z" fill="#3F3D56"/>
<path d="M533.975 205.96C547.54 205.96 558.536 194.963 558.536 181.399C558.536 167.834 547.54 156.838 533.975 156.838C520.41 156.838 509.414 167.834 509.414 181.399C509.414 194.963 520.41 205.96 533.975 205.96Z" fill="#9F616A"/>
<path d="M481.5 207.722H394.5V262.722H481.5V207.722Z" fill="white" stroke="#015999"/>
<path d="M394.5 211.624L390 214.222L394.5 216.82V211.624Z" fill="white" stroke="#015999"/>
<path d="M396.5 211.624L392 214.222L396.5 216.82V211.624Z" fill="white" stroke="white"/>
<path d="M444.971 228.281C445.094 228.729 445.174 229.184 445.21 229.643L488.168 250.225L498.609 245.232L509.74 257.335L487.403 270.557L438.395 238.447C436.397 239.062 434.22 239.156 432.155 238.718C430.09 238.28 428.235 237.33 426.835 235.995C425.436 234.659 424.56 233.002 424.322 231.243C424.085 229.484 424.498 227.706 425.507 226.147C426.515 224.588 428.072 223.32 429.968 222.514C431.865 221.707 434.013 221.399 436.126 221.63C438.239 221.862 440.217 222.622 441.797 223.81C443.377 224.998 444.484 226.557 444.971 228.281V228.281Z" fill="#9F616A"/>
<path d="M489.702 253.968C489.631 253.301 489.71 252.627 489.933 251.994C490.157 251.362 490.52 250.788 490.995 250.315L512.859 228.446C515.025 226.28 517.917 224.992 520.976 224.831C524.035 224.671 527.046 225.648 529.427 227.576C531.809 229.503 533.392 232.244 533.872 235.27C534.352 238.296 533.695 241.392 532.027 243.962L516.457 267.955C515.806 268.955 514.786 269.656 513.619 269.904C512.452 270.153 511.234 269.928 510.232 269.28L491.728 257.271C491.165 256.907 490.69 256.421 490.34 255.85C489.989 255.278 489.771 254.635 489.702 253.968Z" fill="#3F3D56"/>
<path d="M551.356 200.83C546.774 205.711 538.264 203.091 537.667 196.423C537.62 195.905 537.624 195.384 537.677 194.867C537.986 191.914 539.692 189.232 539.283 186.114C539.191 185.337 538.901 184.598 538.443 183.965C534.792 179.075 526.221 186.152 522.775 181.725C520.662 179.011 523.146 174.738 521.524 171.705C519.384 167.701 513.045 169.676 509.07 167.484C504.648 165.044 504.912 158.259 507.823 154.131C511.374 149.097 517.599 146.412 523.747 146.024C529.894 145.637 536 147.299 541.739 149.536C548.26 152.077 554.727 155.589 558.74 161.323C563.62 168.297 564.09 177.671 561.649 185.825C560.164 190.785 555.097 196.844 551.356 200.83Z" fill="#2F2E41"/>
<path d="M610.952 523.785H417.952C417.686 523.785 417.432 523.679 417.245 523.492C417.057 523.304 416.952 523.05 416.952 522.785C416.952 522.519 417.057 522.265 417.245 522.078C417.432 521.89 417.686 521.785 417.952 521.785H610.952C611.217 521.785 611.471 521.89 611.659 522.078C611.846 522.265 611.952 522.519 611.952 522.785C611.952 523.05 611.846 523.304 611.659 523.492C611.471 523.679 611.217 523.785 610.952 523.785Z" fill="#3F3D56"/>
<path d="M558.49 222.366C558.064 222.059 557.629 221.758 557.185 221.462C554.827 219.894 552.273 218.642 549.589 217.738V211.285H530.589V217.272C524.291 219.01 518.642 222.561 514.346 227.483C510.05 232.406 507.296 238.483 506.426 244.959L493.489 341.009C493.406 341.61 493.445 342.221 493.605 342.805C493.765 343.39 494.042 343.936 494.42 344.411C494.789 344.882 495.25 345.273 495.775 345.561C496.3 345.848 496.878 346.026 497.473 346.084C501.956 346.531 511.254 348.268 523.153 354.879C528.875 358.049 535.317 359.694 541.859 359.654C547.052 359.634 552.203 358.717 557.085 356.943C557.912 356.638 558.631 356.095 559.15 355.382C559.669 354.67 559.966 353.819 560.003 352.938C560.468 342.601 563.193 289.394 571.127 256.939C572.669 250.572 572.292 243.892 570.043 237.739C567.794 231.587 563.774 226.237 558.49 222.366Z" fill="#3F3D56"/>
<g filter="url(#filter0_d)">
<rect x="162" y="83.2224" width="192" height="232" fill="white"/>
</g>
<rect x="204" y="107.19" width="24" height="4.71621" rx="2.35811" fill="#CCCCCC"/>
<rect x="243.25" y="107.122" width="38.95" height="4.4804" rx="2.2402" fill="#CCCCCC"/>
<rect x="229.95" y="107.122" width="10.45" height="4.4804" rx="2.2402" fill="#CCCCCC"/>
<rect x="274.6" y="117.163" width="30.4" height="4.4804" rx="2.2402" fill="#F5CE49"/>
<rect x="191" y="117.163" width="79.8" height="4.4804" rx="2.2402" fill="#F5CE49"/>
<rect x="191" y="171.222" width="37" height="5" rx="2.5" fill="#CCCCCC"/>
<rect x="191" y="159.222" width="25" height="5" rx="2.5" fill="#F5CE49"/>
<rect x="220" y="159.222" width="24" height="4.71621" rx="2.35811" fill="#CCCCCC"/>
<rect x="249" y="159.222" width="78" height="4.71621" rx="2.35811" fill="#CCCCCC"/>
<rect x="243.25" y="171.655" width="38.95" height="4.4804" rx="2.2402" fill="#CCCCCC"/>
<rect x="229.95" y="171.655" width="10.45" height="4.4804" rx="2.2402" fill="#CCCCCC"/>
<rect x="274.6" y="181.695" width="30.4" height="4.4804" rx="2.2402" fill="#CCCCCC"/>
<rect x="191" y="181.695" width="79.8" height="4.4804" rx="2.2402" fill="#CCCCCC"/>
<rect x="191" y="191.222" width="81" height="4" rx="2" fill="#CCCCCC"/>
<rect x="191" y="127.222" width="59" height="4.71621" rx="2.35811" fill="#CCCCCC"/>
<rect x="275" y="127.222" width="62" height="4.71621" rx="2.35811" fill="#CCCCCC"/>
<rect x="253" y="127.222" width="17" height="4.71621" rx="2.35811" fill="#CCCCCC"/>
<rect x="282" y="147.222" width="33" height="5" rx="2.5" fill="#F5CE49"/>
<rect x="191" y="147.222" width="89" height="5" rx="2.5" fill="#CCCCCC"/>
<rect x="191" y="137.263" width="79.8" height="4.4804" rx="2.2402" fill="#CCCCCC"/>
<rect x="206" y="239.222" width="44" height="4.71621" rx="2.35811" fill="#CCCCCC"/>
<rect x="275" y="239.222" width="62" height="4.71621" rx="2.35811" fill="#CCCCCC"/>
<rect x="253" y="239.222" width="17" height="4.71621" rx="2.35811" fill="#CCCCCC"/>
<rect x="191" y="259.371" width="124" height="4.71621" rx="2.35811" fill="#CCCCCC"/>
<rect x="191" y="269.782" width="105" height="4.71621" rx="2.35811" fill="#CCCCCC"/>
<rect x="302" y="269.782" width="28" height="4.71621" rx="2.35811" fill="#CCCCCC"/>
<rect x="191" y="280.193" width="69" height="4.71621" rx="2.35811" fill="#CCCCCC"/>
<rect x="264" y="280.193" width="69" height="4.71621" rx="2.35811" fill="#CCCCCC"/>
<rect x="191" y="249.263" width="79.8" height="4.4804" rx="2.2402" fill="#CCCCCC"/>
<rect x="191" y="201.222" width="59" height="4.71621" rx="2.35811" fill="#CCCCCC"/>
<rect x="275" y="201.222" width="62" height="4.71621" rx="2.35811" fill="#CCCCCC"/>
<rect x="253" y="201.222" width="17" height="4.71621" rx="2.35811" fill="#CCCCCC"/>
<rect x="191" y="221.371" width="23" height="4.71621" rx="2.35811" fill="#CCCCCC"/>
<rect x="191" y="211.222" width="27" height="5" rx="2.5" fill="#CCCCCC"/>
<rect x="220" y="211.222" width="100" height="5" rx="2.5" fill="#015999"/>
<rect x="216" y="221.371" width="23" height="4.71621" rx="2.35811" fill="#CCCCCC"/>
<rect x="241" y="221.371" width="23" height="4.71621" rx="2.35811" fill="#CCCCCC"/>
<rect x="266" y="221.371" width="23" height="4.71621" rx="2.35811" fill="#CCCCCC"/>
<rect x="291" y="221.371" width="23" height="4.71621" rx="2.35811" fill="#CCCCCC"/>
<path d="M34.5 112.722H121.5V137.722H34.5V112.722Z" fill="white" stroke="#F5CE49"/>
<path d="M121.5 116.624L126 119.222L121.5 121.82V116.624Z" fill="white" stroke="#F5CE49"/>
<path d="M119.5 116.624L124 119.222L119.5 121.82V116.624Z" fill="white" stroke="white"/>
<rect x="125" y="119.222" width="66" height="1" fill="#F5CE49"/>
<path d="M35.5 154.722H122.5V209.722H35.5V154.722Z" fill="white" stroke="#F5CE49"/>
<path d="M122.5 158.624L127 161.222L122.5 163.82V158.624Z" fill="white" stroke="#F5CE49"/>
<path d="M120.5 158.624L125 161.222L120.5 163.82V158.624Z" fill="white" stroke="white"/>
<path d="M481.5 143.722H394.5V181.722H481.5V143.722Z" fill="white" stroke="#F5CE49"/>
<path d="M394.5 147.624L390 150.222L394.5 152.82V147.624Z" fill="white" stroke="#F5CE49"/>
<path d="M396.5 147.624L392 150.222L396.5 152.82V147.624Z" fill="white" stroke="white"/>
<rect x="126" y="161.222" width="66" height="1" fill="#F5CE49"/>
<rect x="314" y="149.222" width="77" height="1" fill="#F5CE49"/>
<rect x="314" y="213.222" width="77" height="1" fill="#015999"/>
<defs>
<filter id="filter0_d" x="162" y="79.2224" width="200" height="240" filterUnits="userSpaceOnUse" color-interpolation-filters="sRGB">
<feFlood flood-opacity="0" result="BackgroundImageFix"/>
<feColorMatrix in="SourceAlpha" type="matrix" values="0 0 0 0 0 0 0 0 0 0 0 0 0 0 0 0 0 0 127 0" result="hardAlpha"/>
<feOffset dx="4"/>
<feGaussianBlur stdDeviation="2"/>
<feComposite in2="hardAlpha" operator="out"/>
<feColorMatrix type="matrix" values="0 0 0 0 0 0 0 0 0 0 0 0 0 0 0 0 0 0 0.25 0"/>
<feBlend mode="normal" in2="BackgroundImageFix" result="effect1_dropShadow"/>
<feBlend mode="normal" in="SourceGraphic" in2="effect1_dropShadow" result="shape"/>
</filter>
</defs>
</svg>
